<?xml version="1.0" encoding="utf-8"?>
<!-- Generator: Adobe Illustrator 16.0.0, SVG Export Plug-In . SVG Version: 6.00 Build 0)  -->
<!DOCTYPE svg PUBLIC "-//W3C//DTD SVG 1.1//EN" "http://www.w3.org/Graphics/SVG/1.1/DTD/svg11.dtd">
<svg version="1.1" id="Layer_1" xmlns="http://www.w3.org/2000/svg" xmlns:xlink="http://www.w3.org/1999/xlink" x="0px" y="0px"
	 width="40.326px" height="40.326px" viewBox="0 0 40.326 40.326" enable-background="new 0 0 40.326 40.326" xml:space="preserve">
<path fill="#344265" d="M20.163,40.326c-2.62,0-5.171-0.496-7.579-1.473l1.127-2.779c2.05,0.83,4.221,1.252,6.452,1.252
	c9.464,0,17.163-7.699,17.163-17.164c0-6.523-3.623-12.4-9.455-15.338l1.35-2.68c6.85,3.45,11.105,10.354,11.105,18.018
	C40.326,31.281,31.281,40.326,20.163,40.326z"/>
<path fill="#00C6FF" d="M10.668,37.957C4.088,34.438,0,27.619,0,20.162C0,9.045,9.045,0,20.163,0c0.001,0,0.003,0,0.005,0
	c2.386,0,4.723,0.414,6.945,1.23l-1.035,2.816C24.188,3.352,22.199,3,20.167,3c-0.001,0-0.003,0-0.003,0C10.699,3,3,10.699,3,20.162
	c0,6.348,3.48,12.152,9.084,15.148L10.668,37.957z"/>
<path fill="none" stroke="#00C6FF" stroke-miterlimit="10" d="M18.69,28.907"/>
<path fill="none" stroke="#00C6FF" stroke-miterlimit="10" d="M18.765,16.928"/>
<polyline fill="none" stroke="#344265" stroke-width="2" stroke-miterlimit="10" points="19.584,15.349 13.246,13.212 
	11.773,25.925 20.248,28.033 28.724,25.925 30.195,13.212 21.721,16.098 20.552,25.936 "/>
<path fill="none" stroke="#344265" stroke-miterlimit="10" d="M18.765,16.928"/>
</svg>
