<?xml version="1.0" encoding="utf-8"?>
<!-- Generator: Adobe Illustrator 16.0.0, SVG Export Plug-In . SVG Version: 6.00 Build 0)  -->
<!DOCTYPE svg PUBLIC "-//W3C//DTD SVG 1.1//EN" "http://www.w3.org/Graphics/SVG/1.1/DTD/svg11.dtd">
<svg version="1.1" id="Layer_1" xmlns="http://www.w3.org/2000/svg" xmlns:xlink="http://www.w3.org/1999/xlink" x="0px" y="0px"
	 width="40.326px" height="40.326px" viewBox="0 0 40.326 40.326" enable-background="new 0 0 40.326 40.326" xml:space="preserve">
<path fill="#344265" d="M20.196,39.986c-2.571,0-5.075-0.487-7.439-1.445l1.106-2.729c2.012,0.816,4.142,1.229,6.333,1.229
	c9.289,0,16.846-7.557,16.846-16.847c0-6.403-3.556-12.171-9.28-15.054l1.324-2.63c6.723,3.386,10.9,10.162,10.9,17.684
	C39.986,31.108,31.108,39.986,20.196,39.986z"/>
<path fill="#00C6FF" d="M10.877,37.661C4.418,34.205,0.406,27.515,0.406,20.195c0-10.912,8.877-19.789,19.79-19.789
	c0.001,0,0.003,0,0.005,0c2.343,0,4.636,0.406,6.816,1.207l-1.017,2.766c-1.854-0.684-3.807-1.028-5.801-1.028
	c-0.001,0-0.003,0-0.003,0c-9.29,0-16.847,7.557-16.847,16.845c0,6.23,3.417,11.928,8.916,14.868L10.877,37.661z"/>
<g>
	<polygon fill="#344265" points="31,18 9.24,18 10.221,16 31,16 	"/>
	<polygon fill="#344265" points="21.515,24.955 13.454,22.353 15.101,18 16.129,18 14.692,21.726 21.354,23.892 24.465,21.694 
		25.681,18.862 26.724,18.853 25.273,22.315 	"/>
	<polygon fill="#344265" points="29.145,22.689 28.09,22.658 30.695,16 31.752,16 	"/>
</g>
</svg>
