<?xml version="1.0" encoding="utf-8"?>
<!-- Generator: Adobe Illustrator 16.0.0, SVG Export Plug-In . SVG Version: 6.00 Build 0)  -->
<!DOCTYPE svg PUBLIC "-//W3C//DTD SVG 1.1//EN" "http://www.w3.org/Graphics/SVG/1.1/DTD/svg11.dtd">
<svg version="1.1" id="Layer_1" xmlns="http://www.w3.org/2000/svg" xmlns:xlink="http://www.w3.org/1999/xlink" x="0px" y="0px"
	 width="40.327px" height="40.327px" viewBox="0 0 40.327 40.327" enable-background="new 0 0 40.327 40.327" xml:space="preserve">
<path fill="#344265" d="M20.163,40.327c-2.62,0-5.17-0.496-7.579-1.474l1.128-2.779c2.049,0.831,4.219,1.253,6.451,1.253
	c9.464,0,17.164-7.7,17.164-17.164c0-6.524-3.623-12.402-9.456-15.339l1.35-2.68c6.851,3.451,11.106,10.355,11.106,18.019
	C40.327,31.281,31.281,40.327,20.163,40.327z"/>
<path fill="#00C6FF" d="M10.668,37.957C4.088,34.437,0,27.62,0,20.163C0,9.044,9.044,0,20.163,0c0.001,0,0.003,0,0.005,0
	c2.385,0,4.722,0.414,6.945,1.23L26.08,4.046C24.188,3.352,22.199,3,20.167,3c-0.001,0-0.002,0-0.003,0C10.699,3,3,10.699,3,20.163
	C3,26.51,6.48,32.315,12.083,35.31L10.668,37.957z"/>
<polygon fill="#344265" points="20.495,29.499 18.37,29.499 25.167,15.352 18.167,15.352 20.167,17.852 17.167,20.852 
	21.167,20.852 20.167,22.352 13.166,22.352 18.167,17.852 14.166,13.852 28.167,13.852 "/>
</svg>
