<?xml version="1.0" encoding="utf-8"?>
<!-- Generator: Adobe Illustrator 16.0.0, SVG Export Plug-In . SVG Version: 6.00 Build 0)  -->
<!DOCTYPE svg PUBLIC "-//W3C//DTD SVG 1.1//EN" "http://www.w3.org/Graphics/SVG/1.1/DTD/svg11.dtd">
<svg version="1.1" id="Layer_1" xmlns="http://www.w3.org/2000/svg" xmlns:xlink="http://www.w3.org/1999/xlink" x="0px" y="0px"
	 width="40.327px" height="40.327px" viewBox="0 0 40.327 40.327" enable-background="new 0 0 40.327 40.327" xml:space="preserve">
<path fill="#344265" d="M20.164,40.327c-2.62,0-5.17-0.496-7.58-1.474l1.128-2.779c2.049,0.831,4.22,1.253,6.452,1.253
	c9.464,0,17.163-7.7,17.163-17.164c0-6.524-3.623-12.401-9.455-15.339l1.35-2.68c6.85,3.451,11.105,10.354,11.105,18.019
	C40.327,31.281,31.282,40.327,20.164,40.327z"/>
<path fill="#00C6FF" d="M10.669,37.957C4.088,34.437,0,27.619,0,20.163C0,9.045,9.045,0,20.164,0c0.001,0,0.003,0,0.004,0
	c2.386,0,4.723,0.414,6.946,1.23l-1.035,2.816C24.189,3.352,22.2,3,20.167,3c-0.001,0-0.002,0-0.003,0C10.7,3,3,10.699,3,20.163
	c0,6.348,3.48,12.152,9.083,15.147L10.669,37.957z"/>
<g>
	<path fill="#344265" d="M20.546,26.372v-9.5l-2.233,1.173l0.007-1.233l2.453-1.264h1.059v10.824h1.992v1.037h-5.428v-1.037H20.546z
		"/>
</g>
</svg>
